<?xml version="1.0" encoding="utf-8"?>
<!-- Generator: Adobe Illustrator 16.0.0, SVG Export Plug-In . SVG Version: 6.00 Build 0)  -->
<!DOCTYPE svg PUBLIC "-//W3C//DTD SVG 1.1//EN" "http://www.w3.org/Graphics/SVG/1.1/DTD/svg11.dtd">
<svg version="1.1" id="Layer_1" xmlns="http://www.w3.org/2000/svg" xmlns:xlink="http://www.w3.org/1999/xlink" x="0px" y="0px"
	 width="1685px" height="335px" viewBox="0 0 1685 335" enable-background="new 0 0 1685 335" xml:space="preserve">
<g id="Page-1_2_">
	<g>
		<g id="Artboard_8_" transform="translate(-384.000000, -420.000000)">
			<g id="Group_8_" transform="translate(384.000000, 420.000000)">
				<g id="Snapdeal-Logo_8_" transform="translate(1.000000, 1.000000)">
					<g id="Page-1_18_">
						<g>
							<g id="PDP-m_x26_t-changes_8_">
								<g id="Group-41_8_">
									<g id="Page-1_19_">
										<path id="Fill-1_8_" fill="#FF0000" d="M494.872,88.044c-36.237,0-58.049,17.708-58.049,46.866
											c0,22.569,12.306,38.179,52.064,52.075l13.019,4.519c24.622,8.677,32.018,15.959,32.018,28.107
											c0,15.291-13.371,24.654-35.878,24.654c-18.301,0-32.731-5.553-46.446-18.388c-5.641-5.559-13.022-5.559-18.642,0
											l-0.354,0.344c-4.56,4.519-4.56,13.528,0,18.044c18.645,17.715,39.063,24.996,65.453,24.996
											c39.759,0,64.021-18.407,64.021-50.005c0-24.625-12.306-38.518-50.666-52.053l-12.67-4.519
											c-26.041-9.375-33.775-16.66-33.775-28.816c0-12.498,11.609-20.821,29.905-20.821c15.131,0,27.101,5.216,39.764,16.32
											c5.63,5.202,13.365,4.852,19.001-0.7l0.354-0.333c4.56-4.52,4.56-13.55-0.354-17.711
											C536.401,94.98,518.809,88.044,494.872,88.044"/>
										<path id="Fill-3_8_" fill="#FF0000" d="M873.797,194.278v0.68v3.485c0,26.366-18.984,45.822-49.598,45.822
											c-23.935,0-38.344-10.762-38.344-30.561c0-19.073,15.473-30.178,42.208-30.178h45.733V194.278L873.797,194.278z
											 M832.641,88.044c-21.817,0-42.226,5.903-61.928,25.691c-4.567,4.865-4.567,14.236,0,18.748l0.707,0.701
											c5.282,5.205,13.021,5.205,18.295-0.347c14.419-15.284,28.501-19.789,42.927-19.789c25.676,0,41.156,14.236,41.156,37.846
											v8.681h-45.733c-44.329,0-70.359,19.788-70.359,54.159c0,32.297,24.976,55.539,60.164,55.539
											c24.976,0,44.331-9.729,56.282-25.337v7.646c0,6.939,5.985,12.843,13.36,12.843h0.718c7.033,0,13.018-5.903,13.018-13.207
											V150.895C901.246,111.647,875.559,88.044,832.641,88.044L832.641,88.044L832.641,88.044z"/>
										<path id="Fill-5_8_" fill="#FF0000" d="M1582.032,194.278v0.68v3.485c0,26.366-18.987,45.822-49.614,45.822
											c-23.911,0-38.357-10.762-38.357-30.561c0-19.073,15.489-30.178,42.239-30.178h45.732V194.278L1582.032,194.278z
											 M1540.887,88.044c-36.945,0-65.796,21.522-65.796,35.762c0,3.463,1.055,6.942,3.5,9.37l0.722,0.693
											c2.472,2.431,5.281,3.476,8.784,3.476c5.975,0,10.207-4.519,15.834-10.075c7.032-6.932,18.302-14.232,36.934-14.232
											c25.688,0,41.168,14.232,41.168,37.842v8.685H1536.3c-44.342,0-70.372,19.788-70.372,54.141
											c0,32.315,24.979,55.557,60.146,55.557c24.987,0,44.356-9.728,56.308-25.351v7.661c0,6.939,5.975,12.828,13.371,12.828
											h0.697c7.043,0,13.018-5.889,13.018-13.195V150.88C1609.479,111.647,1583.792,88.044,1540.887,88.044L1540.887,88.044
											L1540.887,88.044z"/>
										<path id="Fill-7_8_" fill="#FF0000" d="M1235.134,193.57c-3.518,31.947-19.702,50.695-49.261,50.695
											c-33.416,0-49.947-24.301-49.947-65.61c0-41.31,16.531-65.606,49.947-65.606c29.913,0,46.098,19.435,49.261,52.078V193.57
											L1235.134,193.57z M1262.573,218.932V13.054c0-7.286-5.974-13.182-13.36-13.182h-0.708
											c-7.386,0-13.371,5.896-13.371,13.182v99.634c-12.305-15.97-30.616-24.644-54.896-24.644
											c-46.787,0-72.474,33.327-72.474,90.611c0,57.284,25.687,90.596,72.474,90.596c26.045,0,45.404-10.07,57.353-28.464
											c4.93,14.582,16.542,26.037,27.807,26.037c7.386,0,13.726-5.209,13.726-12.842
											C1279.111,240.101,1262.573,242.17,1262.573,218.932L1262.573,218.932L1262.573,218.932z"/>
										<path id="Fill-9_8_" fill="#FF0000" d="M1007.505,244.266c-33.427,0-49.966-24.301-49.966-64.22v-2.76
											c0-39.931,16.539-64.237,49.966-64.237c32.72,0,49.94,24.307,49.94,65.606
											C1057.456,219.965,1040.225,244.266,1007.505,244.266 M1013.125,88.044c-24.274,0-42.926,9.031-55.231,25.337v-7.629
											c0-6.942-5.974-12.838-13.021-12.838h-0.715c-7.375,0-13.367,5.896-13.367,12.838v214.54
											c0,7.299,5.992,13.204,13.367,13.204h0.715c7.372,0,13.371-5.905,13.371-13.204v-76.026
											c12.29,16.313,30.606,24.996,54.881,24.996c46.795,0,72.481-33.322,72.481-90.606
											C1085.606,121.372,1059.92,88.044,1013.125,88.044"/>
										<path id="Fill-11_8_" fill="#FF0000" d="M1369.539,113.038c31.309,0,47.139,18.401,48.905,50.681h-97.108
											C1324.845,131.79,1340.67,113.038,1369.539,113.038L1369.539,113.038L1369.539,113.038z M1438.486,230.361
											c-5.621-5.197-13.351-5.877-19.7-1.033c-13.728,10.422-26.029,14.938-43.626,14.938
											c-33.782,0-52.062-21.186-54.177-56.602h107.999c10.218,0,17.597-7.278,17.597-17.346
											c0-51.385-24.973-82.274-77.032-82.274c-50.666,0-77.05,33.674-77.05,90.611c0,56.93,28.507,90.596,82.673,90.596
											c25.701,0,43.627-6.248,62.637-21.529c5.267-4.164,5.619-12.487,1.044-17.006L1438.486,230.361L1438.486,230.361z"/>
										<path id="Fill-13_8_" fill="#FF0000" d="M614.855,251.205v-85.738c0-32.629,16.54-52.429,47.493-52.429
											c29.906,0,42.928,16.653,42.928,49.984v88.172c0,7.29,5.985,13.207,13.365,13.207h0.711
											c7.382,0,13.371-5.899,13.371-13.207V162.32c0-50.33-19.702-74.286-64.026-74.286c-24.285,0-42.581,9.031-54.191,25.336
											v-7.618c0-6.954-5.973-12.853-13.017-12.853h-0.701c-7.392,0-13.365,5.899-13.365,12.853v145.453
											c0,7.296,5.983,13.195,13.365,13.195h0.701C608.876,264.4,614.855,258.501,614.855,251.205"/>
										<path id="Fill-15_8_" fill="#FF0000" d="M1669.305,266.824c7.385,0,13.724-5.199,13.724-12.831
											c0-13.879-16.538-11.812-16.538-35.05V13.054c0-7.286-5.975-13.182-13.371-13.182h-0.697
											c-7.396,0-13.382,5.896-13.382,13.182v213.168C1639.025,246.689,1654.162,266.824,1669.305,266.824"/>
										<g id="Group-19_8_" transform="translate(0.000000, 1.395172)">
											<g id="Fill-17-Clipped_8_">
												<defs>
													
														<filter id="Adobe_OpacityMaskFilter" filterUnits="userSpaceOnUse" x="-0.028" y="15.633" width="362.844" height="316.804">
														<feColorMatrix  type="matrix" values="1 0 0 0 0  0 1 0 0 0  0 0 1 0 0  0 0 0 1 0"/>
													</filter>
												</defs>
												<mask maskUnits="userSpaceOnUse" x="-0.028" y="15.633" width="362.844" height="316.804" id="mask-2_2_">
													<g filter="url(#Adobe_OpacityMaskFilter)">
														<polygon id="path-1_2_" fill="#FFFFFF" points="-0.022,332.437 362.822,332.437 362.822,15.623 -0.022,15.623 
																													"/>
													</g>
												</mask>
												<path id="Fill-17_8_" mask="url(#mask-2_2_)" fill="#FF0000" d="M75.855,323.417c3.87,6.585,8.097,9.02,15.831,9.02
													h144.25c7.745,0,11.96-2.084,16.89-8.337l109.066-138.864c2.458-3.125-0.346-8.312-4.222-8.312H182.812
													c-7.746,0-11.961-2.438-15.826-9.038L79.023,17.911c-2.103-3.475-7.744-2.764-9.149,0.701L1.965,180.717
													c-3.169,7.301-2.458,12.177,1.412,18.766L75.855,323.417L75.855,323.417z"/>
											</g>
										</g>
										<path id="Fill-20_8_" fill="#FF0000" d="M257.398,145.675c3.865,6.604,8.094,9.03,15.829,9.03h84.444
											c4.222,0,7.394-5.212,5.268-9.03L282.377,8.203c-3.864-6.596-8.094-9.035-15.825-9.035H105.401
											c-4.219,0-7.382,5.205-5.275,9.035l41.876,71.519c3.864,6.585,8.083,9.035,15.828,9.035h66.495L257.398,145.675
											L257.398,145.675z"/>
									</g>
								</g>
							</g>
						</g>
					</g>
				</g>
			</g>
		</g>
	</g>
</g>
</svg>
