<svg xmlns="http://www.w3.org/2000/svg" viewBox="0 0 71.73 71.73"><defs><style>.cls-1{fill:#c3271a;}.cls-2{fill:#fff;}</style></defs><title>youtube</title><g id="Layer_2" data-name="Layer 2"><g id="Capa_1" data-name="Capa 1"><path class="cls-1" d="M35.86,71.73h0A35.87,35.87,0,0,1,0,35.86H0A35.87,35.87,0,0,1,35.86,0h0A35.87,35.87,0,0,1,71.73,35.86h0A35.87,35.87,0,0,1,35.86,71.73Z"/><path class="cls-2" d="M63.37,22a7.21,7.21,0,0,0-5.08-5.11c-4.48-1.21-22.43-1.21-22.43-1.21s-17.95,0-22.42,1.21A7.21,7.21,0,0,0,8.36,22c-1.2,4.5-1.2,13.9-1.2,13.9s0,9.4,1.2,13.91a7.22,7.22,0,0,0,5.08,5.11c4.47,1.21,22.42,1.21,22.42,1.21s18,0,22.43-1.21a7.22,7.22,0,0,0,5.08-5.11c1.2-4.51,1.2-13.91,1.2-13.91S64.57,26.46,63.37,22Z"/><polygon class="cls-1" points="29.99 44.4 29.99 27.33 45 35.86 29.99 44.4"/></g></g></svg>