<svg id="mouse-keyboard" enable-background="new 0 0 300 300" height="512" viewBox="0 0 300 300" width="512" xmlns="http://www.w3.org/2000/svg"><g><path d="m112.484 229.516c-1.562-1.562-4.094-1.562-5.656 0l-2.828 2.828-2.828-2.828c-1.562-1.562-4.094-1.562-5.656 0s-1.562 4.094 0 5.656l2.828 2.828-2.828 2.828c-1.562 1.562-1.562 4.094 0 5.656.781.781 1.805 1.172 2.828 1.172s2.047-.391 2.828-1.172l2.828-2.828 2.828 2.828c.781.781 1.805 1.172 2.828 1.172s2.047-.391 2.828-1.172c1.562-1.562 1.562-4.094 0-5.656l-2.828-2.828 2.828-2.828c1.563-1.563 1.563-4.094 0-5.656z"/><path d="m68 194c-6.617 0-12 5.383-12 12s5.383 12 12 12 12-5.383 12-12-5.383-12-12-12zm0 16c-2.205 0-4-1.795-4-4s1.795-4 4-4 4 1.795 4 4-1.795 4-4 4z"/><path d="m129.557 207.488c-2.478.344-4.207 2.632-3.862 5.11.344 2.478 2.632 4.207 5.11 3.862 2.478-.344 4.207-2.632 3.863-5.11-.345-2.477-2.633-4.206-5.111-3.862z"/><path d="m254.84 86h-98.84v-4c0-4.412 3.588-8 8-8h12c8.822 0 16-7.178 16-16s-7.178-16-16-16h-44c-2.209 0-4 1.791-4 4s1.791 4 4 4h44c4.412 0 8 3.588 8 8s-3.588 8-8 8h-12c-8.822 0-16 7.178-16 16v4h-102.84c-7.256 0-13.16 5.76-13.16 12.84v78.32c0 7.08 5.904 12.84 13.16 12.84h121.809c2.209 0 4-1.791 4-4s-1.791-4-4-4h-121.809c-2.846 0-5.16-2.172-5.16-4.84v-78.32c0-2.668 2.314-4.84 5.16-4.84h209.68c2.846 0 5.16 2.172 5.16 4.84v78.32c0 2.668-2.314 4.84-5.16 4.84h-14.84c-.104 0-.191.052-.294.059-.823-1.424-1.741-2.784-2.766-4.059h7.06c2.209 0 4-1.791 4-4v-48c0-2.209-1.791-4-4-4h-192c-2.209 0-4 1.791-4 4v48c0 2.209 1.791 4 4 4h135.06c-4.406 5.484-7.06 12.434-7.06 20v28c0 17.645 14.355 32 32 32s32-14.355 32-32v-28c0-2.767-.39-5.438-1.053-8h11.893c7.256 0 13.16-5.76 13.16-12.84v-78.32c0-7.08-5.904-12.84-13.16-12.84zm-54.844 82.357v-6.357h8v4.278c-2.793.351-5.476 1.054-8 2.079zm-143.996-22.357h7.996v8h-7.996zm15.996 0h8v8h-8zm168.004 8h-8.004v-8h8.004zm-16.004 0h-8v-8h8zm-120-8h8v8h-8zm-8 8h-8v-8h8zm24-8h8v8h-8zm16 0h8v8h-8zm16 0h8v8h-8zm16 0h8v8h-8zm16 0h8v8h-8zm16 0h8v8h-8zm16-8v-8h8v8zm-8 0h-8v-8h8zm-16 0h-8v-8h8zm-16 0h-8v-8h8zm-16 0h-8v-8h8zm-16 0h-8v-8h8zm-16 0h-8v-8h8zm-16 0h-8v-8h8zm-16 0h-8v-8h8zm-16 0h-8v-8h8zm0 24v8h-8v-8zm8 0h8v8h-8zm16 0h8v8h-8zm16 0h8v8h-8zm16 0h8v8h-8zm16 0h8v8h-8zm16 0h8v8h-8zm16 0h8v8h-8zm32 0h8v6.354c-2.523-1.025-5.207-1.727-8-2.077zm16 8v-8h8.004v8zm8.004-32h-8.004v-8h8.004zm-176.004-8v8h-7.996v-8zm-7.996 32h7.996v8h-7.996zm180 64c0 13.234-10.766 24-24 24s-24-10.766-24-24v-28c0-13.234 10.766-24 24-24s24 10.766 24 24z"/><path d="m212 178c-2.209 0-4 1.791-4 4v12c0 2.209 1.791 4 4 4s4-1.791 4-4v-12c0-2.209-1.791-4-4-4z"/><path d="m52 118h192c2.209 0 4-1.791 4-4v-12c0-2.209-1.791-4-4-4h-192c-2.209 0-4 1.791-4 4v12c0 2.209 1.791 4 4 4zm156-8h-8v-4h8zm8-4h8v4h-8zm-24 4h-8v-4h8zm-16 0h-8v-4h8zm-16 0h-8v-4h8zm-16 0h-8v-4h8zm-16 0h-8v-4h8zm-16 0h-8v-4h8zm-16 0h-8v-4h8zm-16 0h-8v-4h8zm160 0h-8v-4h8zm-184-4h8v4h-8z"/></g></svg>