<svg xmlns="http://www.w3.org/2000/svg" viewBox="0 0 117.2 117.31"><defs><style>.cls-1{fill:#fc0000;}</style></defs><g id="Layer_2" data-name="Layer 2"><g id="Layer_1-2" data-name="Layer 1"><path class="cls-1" d="M.57,99.12s-1.28,2.57,0,4.15L14.5,117a3.09,3.09,0,0,0,3.16-.32L58.57,75.87l40.22,40.45s2.9,2.25,5.07,0l12.21-12.2s2.31-2.61.32-4.86L75.73,58.55l40.84-40.86s1.57-2.71-.71-4.57L103.29.84A3.37,3.37,0,0,0,99,.84L58.6,40.55,18.14,1A3.51,3.51,0,0,0,13.71.69l-13,13s-1.57,1.43,0,4.58L41.57,58.66Z"/></g></g></svg>