<svg height="496pt" viewBox="-9 0 496 496" width="496pt" xmlns="http://www.w3.org/2000/svg"><path d="m93.769531 98.992188-12.257812-10.289063c-4.886719 5.824219-9.574219 11.96875-13.9375 18.265625l13.160156 9.109375c4.074219-5.894531 8.457031-11.636719 13.035156-17.085937zm0 0"/><path d="m122.886719 69.921875-10.261719-12.273437c-5.640625 4.71875-11.160156 9.757812-16.394531 14.992187l11.3125 11.320313c4.898437-4.90625 10.058593-9.625 15.34375-14.039063zm0 0"/><path d="m271.59375 16c68.132812 0 131.085938 28.992188 175.214844 80h-47.214844v16h72v-72h-16v41.832031c-46.976562-52.214843-112.832031-81.832031-184-81.832031-50.503906 0-99.105469 15.089844-140.546875 43.640625l9.082031 13.167969c38.75-26.695313 84.214844-40.808594 131.464844-40.808594zm0 0"/><path d="m463.769531 378.007812c-4.089843 6.03125-8.511719 11.945313-13.160156 17.558594l12.34375 10.175782c4.949219-6 9.679687-12.316407 14.054687-18.765626zm0 0"/><path d="m419.160156 427.023438 10.183594 12.34375c6.082031-5.015626 12-10.398438 17.609375-16l-11.3125-11.320313c-5.242187 5.25-10.785156 10.289063-16.480469 14.976563zm0 0"/><path d="m271.59375 480c-68.136719 0-131.089844-28.992188-175.21875-80h47.21875v-16h-72v72h16v-41.832031c46.972656 52.214843 112.832031 81.832031 184 81.832031 48.015625 0 94.597656-13.742188 134.710938-39.742188l-8.703126-13.433593c-37.511718 24.320312-81.089843 37.175781-126.007812 37.175781zm0 0"/><path d="m65.289062 256.28125c6.03125-10.042969 17.054688-16.28125 28.765626-16.28125 18.488281 0 33.539062 15.046875 33.539062 33.535156 0 5.617188-1.226562 10.800782-3.539062 15.433594-8.152344 16.304688-12.460938 34.550781-12.460938 52.773438v9.851562c19.917969-1.53125 38.207031-8.753906 53.421875-19.9375l85.457031 42.726562c-1.839844 5.546876-2.878906 11.457032-2.878906 17.617188 0 30.878906 25.117188 56 56 56 30.878906 0 56-25.121094 56-56s-25.121094-56-56-56c-19.019531 0-35.824219 9.542969-45.953125 24.078125l-79.5625-39.773437c1.730469-1.777344 3.457031-3.542969 5.058594-5.441407l-16.511719-16.511719c-4.535156-4.535156-7.03125-10.566406-7.03125-16.984374v-18.953126c0-6.34375-3.179688-12.253906-8.496094-15.804687-9.859375-6.570313-15.554687-17.226563-15.539062-28.714844v-2.527343c.027344-17.289063 12.9375-32.152344 30.035156-34.589844l15.230469-2.175782c-.894531-1-1.871094-1.914062-2.808594-2.875l79.617187-39.804687c10.136719 14.535156 26.941407 24.078125 45.960938 24.078125 30.878906 0 56-25.121094 56-56s-25.121094-56-56-56c-30.882812 0-56 25.121094-56 56 0 6.160156 1.039062 12.0625 2.878906 17.617188l-85.488281 42.742187c-13.136719-9.664063-28.570313-16.382813-45.390625-19v22.640625c0 12.039062-3.976562 23.976562-11.203125 33.601562-10.628906 14.167969-27.078125 22.398438-44.300781 22.398438-6.035156 0-11.265625 4.089844-12.730469 9.945312-3.253906 12.984376-14.871094 22.054688-28.261719 22.054688h-23.097656c.640625 8.304688 2.199219 16.351562 4.679688 24h18.71875c17.066406 0 33.113281-9.089844 41.890624-23.71875zm238.304688 119.71875c8.839844 0 16 7.160156 16 16s-7.160156 16-16 16-16-7.160156-16-16 7.160156-16 16-16zm0-288c8.839844 0 16 7.160156 16 16s-7.160156 16-16 16-16-7.160156-16-16 7.160156-16 16-16zm0 0"/><path d="m177.9375 287.03125 14.597656 14.601562c9.488282-15.6875 15.058594-34 15.058594-53.632812 0-20.128906-5.839844-38.871094-15.777344-54.808594l-23.953125 3.425782c-9.277343 1.328124-16.289062 9.390624-16.304687 18.765624v2.527344c-.007813 6.128906 3.027344 11.800782 8.113281 15.1875 10.082031 6.726563 15.921875 17.613282 15.921875 29.316406v18.953126c0 2.136718.832031 4.152343 2.34375 5.664062zm0 0"/><path d="m35.832031 230.054688c3.246094-12.984376 14.863281-22.054688 28.257813-22.054688 12.214844 0 23.878906-5.832031 31.214844-15.609375 5.449218-7.261719 8.289062-15.789063 8.289062-24.390625v-24c-54.648438 0-99.488281 42.390625-103.59375 96h23.105469c6.023437 0 11.261719-4.089844 12.726562-9.945312zm0 0"/><path d="m95.59375 341.742188c0-20.695313 4.894531-41.421876 14.148438-59.925782 1.210937-2.425781 1.851562-5.136718 1.851562-7.839844 0-10.113281-7.867188-17.976562-17.539062-17.976562-6.125 0-11.886719 3.265625-15.039063 8.511719-11.65625 19.425781-32.960937 31.488281-55.609375 31.488281h-11.980469c16.207031 30.992188 47.542969 52.785156 84.167969 55.59375zm0 0"/></svg>