<svg xmlns="http://www.w3.org/2000/svg" viewBox="0 0 150.23 144.82"><defs><style>.cls-1{fill:#f2686d;}.cls-2{fill:#fff;}</style></defs><g id="Layer_2" data-name="Layer 2"><g id="Ñëîé_1" data-name="Ñëîé 1"><path class="cls-1" d="M150.23,72.41c0,7.88-5.15,14.86-7.46,22-2.39,7.38-2.41,16-6.88,22.17s-12.77,8.88-19,13.39-11.21,11.52-18.59,13.92a21.72,21.72,0,0,1-6.74.95c-5.33,0-11-1.29-16.48-1.29-7.88,0-16.1,2.65-23.21.34-7.38-2.4-12.45-9.45-18.59-13.92s-14.46-7.18-19-13.39S9.85,101.77,7.46,94.39C5.15,87.27,0,80.29,0,72.41s5.15-14.87,7.46-22c2.39-7.37,2.41-16,6.88-22.17s12.77-8.87,19-13.38S44.52,3.34,51.89,1c7.12-2.31,15.34.34,23.22.34S91.22-1.37,98.33,1c7.38,2.39,12.45,9.45,18.59,13.91s14.46,7.19,19,13.39,4.49,14.8,6.88,22.17C145.08,57.54,150.23,64.52,150.23,72.41Z"/><circle class="cls-2" cx="75.11" cy="72.41" r="43.89"/><circle class="cls-2" cx="16.8" cy="70.39" r="4.25"/><circle class="cls-2" cx="25.3" cy="42.72" r="3.4"/><circle class="cls-2" cx="25.3" cy="98.06" r="3.4"/><circle class="cls-2" cx="133.43" cy="70.39" r="4.25"/><circle class="cls-2" cx="124.93" cy="42.72" r="3.4"/><circle class="cls-2" cx="124.93" cy="98.06" r="3.4"/><path class="cls-1" d="M112.63,72.41A37.52,37.52,0,1,1,75.11,34.89,37.4,37.4,0,0,1,112.63,72.41Z"/><circle class="cls-2" cx="75.11" cy="72.12" r="29.06"/><path class="cls-1" d="M54,64.88a2.85,2.85,0,0,0,3.16-2.3h1.92V80.83H56.23V66.91H54Z"/><path class="cls-1" d="M62.46,67c0-2.92,1.54-4.59,4.35-4.59S71.16,64,71.16,67v9.49c0,2.92-1.53,4.58-4.35,4.58s-4.35-1.66-4.35-4.58Zm2.87,9.67c0,1.3.57,1.8,1.48,1.8s1.49-.5,1.49-1.8V66.78c0-1.31-.58-1.8-1.49-1.8s-1.48.49-1.48,1.8Z"/><path class="cls-1" d="M72.91,67c0-2.92,1.54-4.59,4.35-4.59S81.62,64,81.62,67v9.49c0,2.92-1.54,4.58-4.36,4.58s-4.35-1.66-4.35-4.58Zm2.87,9.67c0,1.3.57,1.8,1.48,1.8s1.49-.5,1.49-1.8V66.78c0-1.31-.58-1.8-1.49-1.8s-1.48.49-1.48,1.8Z"/><path class="cls-1" d="M83.44,65.37c0-1.88,1-2.92,2.76-2.92s2.77,1,2.77,2.92v6c0,1.88-1,2.92-2.77,2.92s-2.76-1-2.76-2.92Zm1.83,6.13c0,.8.34,1.14.93,1.14s.94-.34.94-1.14V65.24c0-.81-.36-1.15-.94-1.15s-.93.34-.93,1.15Zm8.13-8.92h1.69L87.9,80.83H86.2ZM92.49,72c0-1.87,1-2.92,2.76-2.92S98,70.17,98,72v6c0,1.87-1,2.92-2.76,2.92s-2.76-1-2.76-2.92Zm1.82,6.13c0,.8.34,1.14.94,1.14s.94-.34.94-1.14V71.91c0-.81-.37-1.14-.94-1.14s-.94.33-.94,1.14Z"/><path class="cls-2" d="M43.64,115l-6.48,5a5.7,5.7,0,0,0,3.9-.29l-1,1c-.94.74-2.33.42-3.75-.11l-1.17.9c-2.09,1.6-3.55,1-4.45.21a1.78,1.78,0,0,1-.4-2.64c1-1.12,2.35-.71,4-.11l.66-.5a3.05,3.05,0,0,1-2.13-.69,2.26,2.26,0,0,1-.06-3.37c1.62-1.88,5-4.39,7.68-2.12A1.61,1.61,0,0,1,41,113.8l.71-.52Zm-12.33,5.36c.27.24,1,.13,1.83-.53l.44-.34c-1-.37-1.89-.51-2.35,0A.61.61,0,0,0,31.31,120.32Zm3.35-4.78c-.57.65-.35,1.2.26,1.71a1.64,1.64,0,0,0,1.23.23l4.05-3.1a1.28,1.28,0,0,0-.28-1.25C38.6,112,35.66,114.36,34.66,115.54Z"/><path class="cls-2" d="M51.71,119.89l-4.21,4.62a3.8,3.8,0,0,0-.34.45c-.21.34-.19.68.43,1s1.93,0,2.85-.16l.52.31c-1.13.29-4.09,1.33-5.3.62-1.06-.62-1.54-1.44-1.15-2.42a4.74,4.74,0,0,1-3,0c-1.19-.7-1.63-1.67-.95-2.83a5.34,5.34,0,0,1,.56-.74l4.21-4.62,2.24,1.31-4.21,4.62a3.08,3.08,0,0,0-.35.45c-.2.34-.19.68.43,1a2.43,2.43,0,0,0,1.43.09,5,5,0,0,1,.39-.46l4.22-4.62Z"/><path class="cls-2" d="M60.35,123.22,57,128.52a3.43,3.43,0,0,0-.26.5c-.13.37-.06.7.61.95s1.9-.37,2.78-.67l.57.22c-1.06.49-3.8,2-5.11,1.54-1.1-.4-1.7-1.08-1.59-2a3.12,3.12,0,0,1-2.81.54,2.08,2.08,0,0,1-1.3-2.92c1.07-2.9,3.4-6,6.78-4.75a1.94,1.94,0,0,1,1,.84l.27-.4Zm-8,3.81c-.38,1,.11,1.4.53,1.56a1.72,1.72,0,0,0,1.4-.45,4.87,4.87,0,0,1,.3-.52l2.6-4.13a1.3,1.3,0,0,0-.72-.6C55.2,122.42,53.19,124.73,52.35,127Z"/><path class="cls-2" d="M65.26,124.28l-.37.84a3.63,3.63,0,0,1,2.26-.47,1.15,1.15,0,0,1,1,1.39,1.37,1.37,0,0,1-1.6,1.11c-1-.2-.26-1.26-.79-1.37a1.63,1.63,0,0,0-1.33.32l-2.85,6.63-2.54-.51,3.64-8.45Z"/><path class="cls-2" d="M76.74,125.33l-1.55,6.06a4.31,4.31,0,0,0-.09.56c0,.39.15.69.87.72s1.7-.94,2.44-1.49l.61,0c-.86.79-3,3.1-4.39,3-1.17-.05-1.95-.51-2.14-1.46A3.1,3.1,0,0,1,70,134.16a2.07,2.07,0,0,1-2.13-2.37c.12-3.09,1.39-6.75,5-6.6a1.9,1.9,0,0,1,1.19.5l.12-.47Zm-6.45,6.07c0,1.08.54,1.31,1,1.32s.83-.36,1.19-.85a4.12,4.12,0,0,1,.14-.59l1.2-4.72a1.37,1.37,0,0,0-.87-.36C71.59,126.14,70.4,129,70.29,131.4Z"/><path class="cls-2" d="M85.77,130.43a2,2,0,0,0,0,.59c0,.39.28.63,1,.53s.9-.68,1.54-1.35l.61-.08c-.71.93-1.81,3-3.2,3.23s-2.29-.3-2.47-1.64a4.05,4.05,0,0,1,0-.93l.24-3.3a2.41,2.41,0,0,0,0-.47c-.09-.64-.48-1-1-.94a1.92,1.92,0,0,0-1.08.52L80.86,134l-2.57.35.68-9.18,2.57-.35-.09,1a4.31,4.31,0,0,1,2.21-1.28A2.32,2.32,0,0,1,86,126.49a2.17,2.17,0,0,1,0,.44Z"/><path class="cls-2" d="M90.77,119.9s.08,1.25.2,2.9l1-.3.06.73-1,.3c.38,5.81.44,6,.47,6.06.11.4.36.61,1,.41s1.32-1.42,1.85-2.17l.59-.17c-.57,1-1.86,3.88-3.21,4.27s-2.32,0-2.69-1.27c-.26-.92-.42-4.84-.55-6.41l-.57.16-.06-.73.57-.16L88.31,121Z"/><path class="cls-2" d="M99.13,128a4.29,4.29,0,0,0,1.85-3.37l.75-.32c-.22,2.11-1.1,4.46-3.24,5.37A2.64,2.64,0,0,1,94.92,128c-.9-2.11-1.57-6.19,1.44-7.47,1.36-.58,2.37-.34,2.86.82.86,2-.82,4.11-2.31,5a7.62,7.62,0,0,0,.25.73A1.4,1.4,0,0,0,99.13,128Zm-1.85-6.73c-.92.39-.89,2.59-.58,4.29a2.9,2.9,0,0,0,1.56-3.61C98.11,121.55,97.78,121,97.28,121.22Z"/><path class="cls-2" d="M106.25,124.3a4.25,4.25,0,0,0,1.39-3.58l.7-.42c.06,2.12-.5,4.57-2.5,5.75a2.64,2.64,0,0,1-3.75-1.12c-1.16-2-2.37-5.91.46-7.58,1.27-.75,2.29-.64,2.93.44,1.12,1.89-.27,4.18-1.64,5.23a7.57,7.57,0,0,0,.35.7A1.39,1.39,0,0,0,106.25,124.3Zm-2.71-6.43c-.87.51-.54,2.69,0,4.33a2.89,2.89,0,0,0,1.07-3.78C104.4,118.09,104,117.6,103.54,117.87Z"/><path class="cls-2" d="M109.94,107.49l4.6,8.8a3.88,3.88,0,0,0,.29.5c.26.31.58.39,1.12-.06s.64-1.83.83-2.73l.47-.39c-.11,1.17-.16,4.31-1.24,5.2a2,2,0,0,1-2.55.33,3.14,3.14,0,0,1-.95,2.7,2.08,2.08,0,0,1-3.18-.35c-2-2.38-3.46-5.95-.69-8.24a1.9,1.9,0,0,1,1.22-.42l-1.75-3.37Zm1,12.08c.69.84,1.27.61,1.62.32a1.65,1.65,0,0,0,.31-1.42,3.71,3.71,0,0,1-.29-.53l-2.26-4.32a1.33,1.33,0,0,0-.88.31C108.35,114.79,109.34,117.68,110.9,119.57Z"/><path class="cls-2" d="M38.44,23.86a1.09,1.09,0,0,1-.87.23,1.88,1.88,0,0,0-.37-1.71,1.16,1.16,0,0,0-1.78-.08,1.52,1.52,0,0,0-.28,2.28c1.82,2.16,5-.32,7.61,2.76,1.63,1.94,1.24,4.4-1,6.26-1.1.93-3.24,2.33-4.91.34a2.51,2.51,0,0,1,.37-3.69c.62-.52,1.18-.63,1.7-.23-1,1-1.14,1.92-.34,2.87a1.69,1.69,0,0,0,2.48.18c1.09-.91.72-2.23-.14-3.25-2.17-2.59-5.63-.65-7.35-2.71-1.22-1.45-.51-3.94,1.13-5.32.73-.61,2.41-1.83,3.7-.29A1.6,1.6,0,0,1,38.44,23.86Z"/><path class="cls-2" d="M48,18.47l2,5.94a3.7,3.7,0,0,0,.22.52c.2.34.5.5,1.12.13s.92-1.7,1.26-2.56l.53-.31c-.3,1.13-.86,4.23-2.07,4.93a2,2,0,0,1-2.59-.07,3.09,3.09,0,0,1-1.37,2.5A2.08,2.08,0,0,1,44,28.7c-1.56-2.67-2.46-6.44.65-8.25a2,2,0,0,1,1.27-.22l-.14-.46Zm-2.16,8.59c.54.93,1.15.8,1.54.58A1.7,1.7,0,0,0,48,26.28a3.41,3.41,0,0,1-.21-.57l-1.53-4.63a1.32,1.32,0,0,0-.92.17C44.14,21.93,44.65,24.94,45.88,27.06Z"/><path class="cls-2" d="M52.7,13.41s.22,1.23.53,2.86l1-.42.14.72-1,.42c1,5.73,1.13,5.89,1.16,6,.16.38.43.56,1.1.28s1.14-1.56,1.58-2.37l.57-.24c-.45,1.09-1.41,4.08-2.7,4.62s-2.3.29-2.82-1c-.36-.88-1-4.76-1.28-6.31l-.55.23-.14-.72.55-.23-.46-2.5Z"/><path class="cls-2" d="M57.17,10.91a1.46,1.46,0,0,1,1.8,1,1.43,1.43,0,0,1-2.74.82A1.43,1.43,0,0,1,57.17,10.91Zm1.9,3.42.52,6.23a3,3,0,0,0,.09.56c.11.37.37.6,1.06.39s1.29-1.44,1.82-2.2l.58-.18c-.55,1-1.81,3.91-3.15,4.32s-2.33.06-2.72-1.23a4.38,4.38,0,0,1-.16-.91l-.53-6.23Z"/><path class="cls-2" d="M66.14,12.45l0,.24c.52,2.93,1.88,3.6,2.24,5.68,0,.12,0,.25,0,.37a14.63,14.63,0,0,0,1-1.35l.57.52c-.43.48-1,1.22-1.63,1.95a3.21,3.21,0,0,1-2.83,2.2c-2,.36-3.14,0-3.45-1.79-.24-1.42.25-2.35,1-2.52a17,17,0,0,0,.63-4.32Zm-2.52,7.48a1.4,1.4,0,0,1-.67-.05,1.35,1.35,0,0,0,1.77,1.24c.6-.1,1.34-1,1.1-2.37-.19-1.1-1.16-1.9-1.58-4.11-.13.92-.18,2.1-.41,3.06.45.06.66.35.76.89A1.16,1.16,0,0,1,63.62,19.93Z"/><path class="cls-2" d="M75.32,10.24a4.09,4.09,0,0,0,0-.49.62.62,0,0,0-.72-.57c-.39,0-1,.33-1.18,1.54l-.22,1.44,1.31-.07-.08.72-1.33.08-1.52,9.82c-.42,2.61-1.88,3.18-3,3.24a2,2,0,0,1-2.23-1.82c-.09-1.66,1.26-2.25,2.94-2.87l1.6-10.39c.39-2.6,1.91-3.17,3.1-3.24a2,2,0,0,1,2.23,1.82,4.35,4.35,0,0,1,0,.74ZM68,24.37c.37,0,.77-.38.94-1.46l.18-1.05c-1.11.44-1.93,1-1.88,2A.73.73,0,0,0,68,24.37Z"/><path class="cls-2" d="M83.37,12.61l-1.75,6a2.57,2.57,0,0,0-.12.56c0,.39.13.69.85.75s1.73-.88,2.49-1.4l.61,0c-.89.76-3.1,3-4.5,2.89-1.17-.09-1.93-.58-2.09-1.53a3.12,3.12,0,0,1-2.55,1.29,2.08,2.08,0,0,1-2.06-2.45c.24-3.09,1.63-6.7,5.22-6.43a1.93,1.93,0,0,1,1.17.54l.15-.46Zm-6.65,5.85c-.09,1.08.49,1.32.94,1.35s.84-.33,1.22-.81a3.83,3.83,0,0,1,.15-.58l1.37-4.68a1.33,1.33,0,0,0-.86-.39C78.2,13.24,76.9,16,76.72,18.46Z"/><path class="cls-2" d="M89.88,15.29c.09-.42-.13-.65-.52-.74-1.48-.33-3.06,2.32-3.48,4.22-.23,1-.21,1.93.86,2.16a4.22,4.22,0,0,0,3.42-1l.6.14c-1.05.76-2.49,2.74-5.6,2-1.46-.32-2.22-1.34-1.76-3.42.57-2.56,2.43-5.7,5.83-5,1,.21,1.88.68,1.67,1.65a2.23,2.23,0,0,1-.22.56.86.86,0,0,0-.42-.21,2.1,2.1,0,0,0-.58,0A2.85,2.85,0,0,0,89.88,15.29Z"/><path class="cls-2" d="M97.52,13.4s-.66,1.07-1.51,2.49l1,.36-.38.63-1-.35c-3,5-3.06,5.15-3.09,5.23-.14.39-.06.71.62.94s1.9-.41,2.77-.72l.58.2c-1.06.51-3.76,2.11-5.09,1.66S89.52,22.53,90,21.25c.31-.9,2.44-4.2,3.23-5.57l-.56-.19.37-.63.56.19,1.32-2.17Z"/><path class="cls-2" d="M101.65,18.31l-3.74,5a3.73,3.73,0,0,0-.3.48c-.16.35-.12.69.53,1s1.93-.22,2.82-.44l.56.26c-1.1.4-4,1.72-5.22,1.13S94.51,24.25,95.08,23a4.39,4.39,0,0,1,.48-.79l3.74-5Zm.85-3.81a1.43,1.43,0,0,1,.7,1.91,1.41,1.41,0,0,1-1.9.68,1.4,1.4,0,0,1-.69-1.88A1.41,1.41,0,0,1,102.5,14.5Z"/><path class="cls-2" d="M108.05,24.82a.65.65,0,0,0,.36.41c.72.45,1.36.13,2.07.24l-.14.36a5,5,0,0,1-3,0c-2.19,2.9-4.79,3.39-6.32,2.45s-1.92-2.13-.8-4c2.32-3.77,5.24-4.21,7.35-2.91C109,22.33,108.71,23.69,108.05,24.82Zm-1.93.49a.74.74,0,0,1-.22-1.09,1.38,1.38,0,0,1,1.34-.66c.26-.53.28-.92-.15-1.19-1.44-.89-4,1.86-4.74,3.09-.56.92-.29,1.43.31,1.8C103.6,27.83,105,26.68,106.12,25.31Z"/><path class="cls-2" d="M112.31,33a2.08,2.08,0,0,0-.44.38c-.26.3-.29.63.25,1.09s1.11.22,2,.25l.47.39c-1.17.1-3.47.69-4.54-.22s-1.3-1.92-.42-2.94a4.09,4.09,0,0,1,.67-.63l2.63-2a2.1,2.1,0,0,0,.34-.32c.42-.5.43-1,.06-1.35a2,2,0,0,0-1.11-.45l-5.88,4.54-2-1.68,7.29-5.61,2,1.68-.79.6a4.29,4.29,0,0,1,2.42.79,2.32,2.32,0,0,1,.12,3.06,1.76,1.76,0,0,1-.31.3Z"/></g></g></svg>