<svg xmlns="http://www.w3.org/2000/svg" viewBox="0 0 99.34 99.56"><defs><style>.cls-1,.cls-10,.cls-5{fill:#d4403b;}.cls-2,.cls-3{fill:#fff;}.cls-3{stroke:#fff;stroke-miterlimit:10;stroke-width:3px;}.cls-4{fill:#d43f3b;}.cls-10,.cls-5{font-size:6px;}.cls-5{font-family:MyriadPro-Regular, Myriad Pro;}.cls-6{letter-spacing:-0.08em;}.cls-7{letter-spacing:-0.08em;}.cls-8{letter-spacing:-0.01em;}.cls-9{letter-spacing:0.03em;}.cls-10{font-family:MyriadPro-Bold, Myriad Pro;font-weight:700;}.cls-11{letter-spacing:-0.03em;}.cls-12{letter-spacing:0.01em;}</style></defs><title>Asset 1</title><g id="Layer_2" data-name="Layer 2"><g id="Layer_1-2" data-name="Layer 1"><path class="cls-1" d="M84,81.35c-1.33,1.45-1.58,6-3.11,7.23s-6,.55-7.72,1.55-3.28,5.26-5.11,6-5.91-1.25-7.83-.8-4.7,4-6.65,4.23-5.28-3-7.25-3.08-5.69,2.6-7.59,2.08-4.18-4.37-6-5.08-6.16.72-7.87-.25-2.71-5.41-4.26-6.62S14.46,85.47,13.11,84s-1-6-2.12-7.58S5.5,73.57,4.63,71.81s.81-6,.21-7.88S.44,59.57.13,57.62s2.54-5.49,2.53-7.46S-.26,44.7,0,42.75s4-4.5,4.61-6.39-1.18-6.08-.33-7.87,5.18-3.1,6.28-4.74.67-6.16,2-7.61,5.87-1.44,7.4-2.68,2.46-5.69,4.16-6.69,6,.36,7.86-.38,4-4.71,6-5.16,5.66,2.12,7.62,2S50.81-.13,52.77,0s4.79,3.7,6.71,4.12,6-1.62,7.83-.92,3.48,4.94,5.19,5.92,6.2.21,7.75,1.42,1.87,5.75,3.22,7.18,5.86,2,7,3.65.1,6.05,1,7.81,5,3.67,5.6,5.54-1.69,5.81-1.39,7.75,3.7,5,3.72,7-3.33,5-3.61,7,2.07,5.84,1.51,7.72S92.57,68,91.73,69.77,92,76,90.88,77.6,85.29,79.9,84,81.35Z"/><path class="cls-2" d="M85.38,49.78A35.71,35.71,0,1,1,49.67,14.07,35.71,35.71,0,0,1,85.38,49.78Z"/><path class="cls-2" d="M49.67,88.14A38.36,38.36,0,1,1,88,49.78,38.4,38.4,0,0,1,49.67,88.14Zm0-76.11A37.75,37.75,0,1,0,87.42,49.78,37.8,37.8,0,0,0,49.67,12Z"/><path class="cls-3" d="M49.67,90.78a41,41,0,1,1,41-41A41,41,0,0,1,49.67,90.78Zm0-80.79A39.79,39.79,0,1,0,89.46,49.78,39.84,39.84,0,0,0,49.67,10Z"/><polygon class="cls-1" points="38.87 74.96 41.31 76.26 40.84 73.53 42.83 71.6 40.08 71.21 38.87 68.72 37.65 71.21 34.9 71.6 36.9 73.53 36.42 76.26 38.87 74.96"/><polygon class="cls-1" points="50.79 80.96 54.41 82.89 53.71 78.84 56.66 75.99 52.59 75.4 50.79 71.72 48.98 75.4 44.92 75.99 47.87 78.84 47.16 82.89 50.79 80.96"/><polygon class="cls-1" points="61.53 74.97 63.96 76.26 63.49 73.56 65.46 71.65 62.74 71.26 61.53 68.8 60.33 71.26 57.61 71.65 59.58 73.56 59.11 76.26 61.53 74.97"/><path class="cls-4" d="M63.78,43.7a1.42,1.42,0,0,1,.4-1,1.36,1.36,0,0,1,1-.42,1.39,1.39,0,0,1,1.06.42,1.46,1.46,0,0,1,.4,1v.38a1.39,1.39,0,0,1-.4,1,1.36,1.36,0,0,1-1.05.42,1.4,1.4,0,0,1-1.46-1.44Zm.71.38a.94.94,0,0,0,.19.6.66.66,0,0,0,.56.25.64.64,0,0,0,.55-.25.92.92,0,0,0,.19-.6V43.7a1,1,0,0,0-.19-.61.66.66,0,0,0-.56-.25.64.64,0,0,0-.55.25,1,1,0,0,0-.19.61Zm1,4.77L65,48.52,68.4,43l.52.33Zm1.69-1.19a1.44,1.44,0,0,1,.4-1,1.54,1.54,0,0,1,2.11,0,1.4,1.4,0,0,1,.4,1V48a1.44,1.44,0,0,1-.4,1,1.39,1.39,0,0,1-1,.41,1.44,1.44,0,0,1-1.07-.41,1.48,1.48,0,0,1-.4-1Zm.71.37a1,1,0,0,0,.19.61.67.67,0,0,0,.57.25.64.64,0,0,0,.54-.25,1,1,0,0,0,.19-.61v-.37a1,1,0,0,0-.19-.61.74.74,0,0,0-1.11,0,1,1,0,0,0-.19.61Z"/><path class="cls-1" d="M32.45,56.44h2.89V48.12c0-.32,0-.66,0-1l-2,1.72a.7.7,0,0,1-.27.14.75.75,0,0,1-.26,0,.86.86,0,0,1-.36-.08.69.69,0,0,1-.24-.19l-.77-1.06L35.77,44h2V56.44h2.56v1.83H32.45Z"/><path class="cls-1" d="M52.2,51.13a12,12,0,0,1-.4,3.25,6.78,6.78,0,0,1-1.11,2.27A4.45,4.45,0,0,1,49,58a5,5,0,0,1-2.07.44A4.89,4.89,0,0,1,44.88,58a4.32,4.32,0,0,1-1.65-1.34,6.58,6.58,0,0,1-1.1-2.27,12,12,0,0,1-.39-3.25,11.88,11.88,0,0,1,.39-3.24,6.5,6.5,0,0,1,1.1-2.27,4.32,4.32,0,0,1,1.65-1.34A4.89,4.89,0,0,1,47,43.84a5,5,0,0,1,2.07.44,4.45,4.45,0,0,1,1.67,1.34,6.68,6.68,0,0,1,1.11,2.27A11.85,11.85,0,0,1,52.2,51.13Zm-2.52,0a12.1,12.1,0,0,0-.23-2.56,5.19,5.19,0,0,0-.6-1.62,2.25,2.25,0,0,0-.88-.84,2.2,2.2,0,0,0-1-.25,2.13,2.13,0,0,0-1,.25,2.17,2.17,0,0,0-.87.84,5.19,5.19,0,0,0-.6,1.62,15.06,15.06,0,0,0,0,5.13,5.19,5.19,0,0,0,.6,1.62,2.17,2.17,0,0,0,.87.84,2.24,2.24,0,0,0,1,.24,2.31,2.31,0,0,0,1-.24,2.25,2.25,0,0,0,.88-.84,5.19,5.19,0,0,0,.6-1.62A12.14,12.14,0,0,0,49.68,51.13Z"/><path class="cls-1" d="M63.65,51.13a12,12,0,0,1-.4,3.25,6.78,6.78,0,0,1-1.11,2.27A4.45,4.45,0,0,1,60.47,58a5,5,0,0,1-2.07.44A4.89,4.89,0,0,1,56.33,58a4.42,4.42,0,0,1-1.66-1.34,6.76,6.76,0,0,1-1.09-2.27,12,12,0,0,1-.4-3.25,11.85,11.85,0,0,1,.4-3.24,6.67,6.67,0,0,1,1.09-2.27,4.42,4.42,0,0,1,1.66-1.34,4.89,4.89,0,0,1,2.07-.44,5,5,0,0,1,2.07.44,4.45,4.45,0,0,1,1.67,1.34,6.68,6.68,0,0,1,1.11,2.27A11.85,11.85,0,0,1,63.65,51.13Zm-2.52,0a12.1,12.1,0,0,0-.23-2.56A5,5,0,0,0,60.29,47a2.17,2.17,0,0,0-.87-.84,2.16,2.16,0,0,0-2.9.84,5.19,5.19,0,0,0-.6,1.62,15.06,15.06,0,0,0,0,5.13,5.19,5.19,0,0,0,.6,1.62,2.21,2.21,0,0,0,.86.84,2.29,2.29,0,0,0,2,0,2.17,2.17,0,0,0,.87-.84,5,5,0,0,0,.61-1.62A12.14,12.14,0,0,0,61.13,51.13Z"/><text class="cls-5" transform="translate(30.81 39.98)">S<tspan class="cls-6" x="2.96" y="0">A</tspan><tspan x="6.17" y="0">TIS</tspan><tspan class="cls-7" x="13.54" y="0">F</tspan><tspan class="cls-8" x="16" y="0">A</tspan><tspan class="cls-9" x="19.58" y="0">C</tspan><tspan x="23.23" y="0">TION</tspan></text><text class="cls-10" transform="translate(32.81 66.16)">G<tspan class="cls-11" x="4.09" y="0">U</tspan><tspan x="8" y="0">A</tspan><tspan class="cls-12" x="11.94" y="0">R</tspan><tspan x="15.55" y="0">ANTEE</tspan></text><path class="cls-1" d="M45.28,24.94h-1.2a.3.3,0,0,0-.31.3v4.81a.31.31,0,0,0,.31.3h1.2a.31.31,0,0,0,.3-.3V25.24A.3.3,0,0,0,45.28,24.94Z"/><path class="cls-1" d="M52.79,25.73a1,1,0,0,0-1-.79H49.49a5.59,5.59,0,0,0,.3-1.78,1.26,1.26,0,0,0-1.26-1.23h-.25a.3.3,0,0,0-.3.3,4.19,4.19,0,0,1-.78,2.46,3.36,3.36,0,0,1-1,.66v4.51a6.94,6.94,0,0,0,2.48.49h2a.92.92,0,0,0,.9-1.24.89.89,0,0,0,.66-.87.92.92,0,0,0-.06-.33.9.9,0,0,0,.43-1.47A.89.89,0,0,0,52.79,25.73Z"/></g></g></svg>